P2
3 3
255
50 50 100 
50 150 150 
50 150 200
 