P2
# Shows the word "FEEP" (example from Netpbm man page on PGM)
24 7
255
0  0  0  0  0  0  0  0  0  0  0  0  0  0  0  0  0  0  0  0  0  0  0  0
0  50  50  50  50  0  0  125  125  125  125  0  0 200 200 200 200  0  0 255 255 255 255  0
0  50  0  0  0  0  0  125  0  0  0  0  0 200  0  0  0  0  0 255  0  0 255  0
0  50  50  50  0  0  0  125  125  125  0  0  0 200 200 200  0  0  0 255 255 255 255  0
0  50  0  0  0  0  0  125  0  0  0  0  0 200  0  0  0  0  0 255  0  0  0  0
0  50  0  0  0  0  0  125  125  125  125  0  0 200 200 200 200  0  0 255  0  0  0  0
0  0  0  0  0  0  0  0  0  0  0  0  0  0  0  0  0  0  0  0  0  0  0  0